<?xml version="1.0" encoding="UTF-8"?><svg id="a" xmlns="http://www.w3.org/2000/svg" viewBox="0 0 187.9 230.94"><defs><style>.b{stroke-width:2.87px;}.b,.c,.d{stroke:#000;stroke-miterlimit:10;}.b,.d{fill:#592929;}.c,.d{stroke-width:1.91px;}.c,.e{fill:#fff;}.f,.e{stroke-width:0px;}</style></defs><path class="f" d="m39.24,143.08c-1.84,4.01-1.99,8.12-.97,12.37.87,3.62,2.41,7.14,2.07,10.93-.04.44-.06.83,0,1.27s.34,1.04.24,1.48c-.06.26.23-.15-.03.09-.11.1.07-.02-.22.09-.77.29-1.56.51-2.32.84-2.31.99-4.21,2.68-5.37,4.93-1.71,3.33-2.28,7.67-1.16,11.27.84,2.7,2.6,4.98,4.77,6.75.22.18.76.6.8.62.45.3.08.08.08-.09,0,.47.33,1.12.47,1.56.75,2.37,1.64,4.69,2.64,6.97,2.85,6.47,6.78,12.71,12.74,16.7,1.91,1.28,3.59,2.89,5.44,4.25,2.75,2.01,5.78,3.58,9,4.68,2.33.79,4.69,1.15,7.08,1.67,1.67.36,3.3.78,5,1,4.04.54,8.14.58,12.21.36,8.22-.45,16.57-1.79,24.39-4.42s14.67-7.05,20.89-12.19,11.99-10.99,15.06-18.25c.58-1.38,1.04-2.8,1.28-4.28.22-1.36-1.86-1.94-2.08-.57-1.12,6.97-6.53,12.99-11.43,17.71-5.93,5.7-12.86,10.67-20.4,14.01-6.9,3.06-14.65,4.53-22.12,5.37-4.13.46-8.3.7-12.46.55-1.85-.06-3.7-.2-5.53-.47s-3.55-.77-5.35-1.07c-3.94-.68-7.78-1.88-11.26-3.87-2.32-1.32-4.37-2.99-6.44-4.67s-4.5-3.18-6.43-5.24c-2.4-2.55-4.31-5.53-5.94-8.62-1.37-2.59-2.53-5.29-3.51-8.05-.44-1.23-.7-2.57-1.2-3.76-.24-.58-.75-.89-1.18-1.23-.86-.68-1.68-1.42-2.39-2.26-2.41-2.86-2.95-6.47-2.22-10.07.56-2.76,1.87-5.32,4.37-6.77,1.24-.72,2.82-.87,4-1.66,1.59-1.06.59-2.83.66-4.3.08-1.79.06-3.42-.32-5.19-.78-3.65-2.32-7.14-2.4-10.91-.05-2.23.44-4.39,1.37-6.42.57-1.25-1.28-2.35-1.86-1.09h0Z"/><path class="d" d="m45.76,191.71c-5.84,2.08-7.21,7.66-11.29,11.36-3.92,3.56-10.73,5.27-16.8,4.21,10.04,5.26,24.68,5.22,34.66-.1-.06,1.73,1.93,4.53,3.75,5.58,3.3-.89,7.14-3.08,9.2-5.35,1.37,1.97,3.56,4.44,6.19,5.87.59.32,4.52-3.61,6.59-5.7,1.19,2.44,4.01,4.46,7.3,5.76,1.67-.76,4.36-3.61,5.48-5.86,9.82,4.66,22.14,7.6,33.65,6.07-6.09-.78-12.58-5.49-15.13-9.62-3.59-5.82-7.15-11.92-15.86-11.73l-24.54-3.41-23.2,2.92Z"/><path class="c" d="m72.63,167.75c-7.28-.32-14.88-.23-21.43,2.11s-11.72,7.52-10.57,12.8c1.05,4.82,7,8.41,13.36,9.89,7.51,1.74,15.99,1.07,22.82-1.8,2.64,1.7,5.77,3.28,9.29,3.3s7.2-2.23,6.57-4.76"/><path class="e" d="m96.64,161.6c3.04-3.23,8.79-4.92,14-4.12,5.21.8,9.58,4.04,10.63,7.9"/><path class="f" d="m96.64,161.6c4.85-7.96,18.63-7.81,23.52.1.66,1.14,1.12,2.41,1.1,3.68-5.32-7.74-16.96-8.08-24.63-3.77h0Z"/><path class="e" d="m61.71,161.1c-5.48-4.42-15.51-2.26-17.37,3.74"/><path class="f" d="m61.71,161.1c-4.61-1.42-9.31-1.16-13.61.81-1.35.66-2.61,1.52-3.76,2.94.22-8.12,13.42-10.27,17.37-3.74h0Z"/><path class="b" d="m92.42,107.88c-15.34-2.91-24.71-1.25-44.02,4.79-8.24-5-20.16-4.79-30.39-2.71-12.5,2.55-19.6,10.83-15.34,22.69,2.91,8.12,14.48,12.7,25.28,11.87,9.7-.75,22.44-1.25,31.81-11.66,7.95,6.25,41.37-13.98,54.26-4.56,2.2,1.61,4.12,3.48,6.83,4.6,6.08,2.5,14.53.53,20.02,3.68,5.96,3.41,4.42,10.12,3.24,15.59s-12.51,10.49-9.9,21.66c1.74,10.85,8.51,6.98,16.71,7.93,3.77.68,13.24-25.94,5.29-46.17-4.44-11.31-18.43-15.9-34.02-13.2,0,0-17.42-12.16-29.77-14.5Z"/><path class="f" d="m60.49,108.68c1.63-4.82,3.7-9.48,5.1-14.37,1.24-4.32,1.91-8.94.54-13.31-.3-.97-1.77-1.29-2.28-.3-3.76,7.25-9.51,14-17.22,17.16s-16.11,1.59-22.89-3.2c-3.97-2.81-7.54-6.36-9.62-10.79-1.72-3.68-2.5-7.78-2.46-11.83.08-7.99,3.47-16.17,9.89-21.12,4.24-3.27,9.45-5.11,14.81-4.88,3.74.16,7.27,1.47,10.98,1.78.68.06,1.24-.62,1.25-1.25.06-6.25,1.04-12.52,3.85-18.14,2.22-4.43,5.02-8.57,8.47-12.13,8.38-8.64,19.8-12.78,31.65-13.6s23.42.75,33.35,6.83c7.16,4.38,12.86,11.07,15.74,18.98,1.51,4.15,2.18,8.47,2.21,12.89.02,2.59-.21,5.19-1.05,7.66-.63,1.85-1.64,3.52-2.72,5.15-.57.86-1.15,1.71-1.72,2.57-.71,1.08.67,2.29,1.71,1.71,4.66-2.59,10.32-3.27,15.57-3,6.21.33,12.77,2.01,17.67,5.99,4.36,3.55,7.7,8.4,9.77,13.61,1.02,2.57,1.77,5.26,2.13,8,.28,2.17.22,4.32.17,6.5-.15,6.61-.88,13.2-5.68,18.21-3.57,3.71-8.4,5.96-13.24,7.48-2.99.94-6.18,1.02-9.31.9-2.58-.1-5.13-.48-7.6-1.24-7.43-2.31-12.35-8.55-13.33-16.2-.16-1.26-2.17-1.86-2.46-.33-1.33,7.11-2.66,14.22-3.99,21.32-.29,1.57,2.12,2.25,2.41.66,1.33-7.11,2.66-14.22,3.99-21.32l-2.46-.33c.93,7.33,4.89,13.95,11.69,17.24,4.93,2.38,10.54,2.97,15.95,2.67,1.84-.1,3.59-.28,5.36-.82,1.57-.48,3.11-1.03,4.62-1.67,2.56-1.07,5.02-2.37,7.23-4.05,3.39-2.57,5.99-5.89,7.49-9.88,1.25-3.33,1.62-6.92,1.75-10.45.17-4.72.15-9.32-1.16-13.91-1.67-5.86-4.77-11.42-9.02-15.8-4.56-4.71-10.3-7.29-16.71-8.45s-12.96-.97-18.94,1.27c-1.09.41-2.16.88-3.17,1.45l1.71,1.71c2.51-3.8,4.88-7.34,5.53-11.96.72-5.06.26-10.47-1.1-15.4-2.35-8.51-7.64-15.94-14.69-21.19C120.91,2.49,109.02-.09,97.52,0c-12.87.1-25.71,3.32-35.6,11.89-4,3.46-7.35,7.66-10,12.23-1.27,2.18-2.45,4.46-3.35,6.82-1.19,3.13-1.74,6.54-2.12,9.85-.22,1.92-.34,3.85-.36,5.78l1.25-1.25c-3.54-.3-6.93-1.54-10.51-1.76-5.1-.31-10.06,1.09-14.4,3.75-7.7,4.71-12.22,13.11-13.11,21.97-.44,4.35.04,8.85,1.48,12.99.72,2.05,1.65,4.04,2.83,5.86,1.5,2.33,3.54,4.32,5.62,6.14,6.95,6.07,16.02,9.45,25.18,6.97,9.7-2.62,17.09-10.6,21.59-19.28l-2.28-.3c1.33,4.24.47,8.66-.79,12.82-1.4,4.59-3.32,8.99-4.86,13.54-.52,1.53,1.9,2.18,2.41.66h0Z"/><path class="f" d="m96.75,84.42c.99,5.62,4.69,10.93,9.18,14.34,4.99,3.79,11.87,4.93,17.99,4.38,3.96-.35,7.79-1.46,11.29-3.36,1.3-.71.14-2.69-1.16-1.98-6.85,3.73-15.47,4.19-22.74,1.4-6.18-2.38-11.21-8.91-12.35-15.38-.26-1.45-2.47-.84-2.21.61h0Z"/><path class="f" d="m65.89,146.73c.84.87,0,3.34-2.13,3.94-.57.16-1.19.1-1.78-.04-7.27-1.73-15.83,0-20.88,4.2,1.54-3.1,4.7-5.75,8.68-7.28s7.17-2.42,12.22-2.17c0,0,3.02.48,3.88,1.36Z"/><path class="f" d="m64.88,147.74c-.2-.25-.1.16-.22.43-.14.31-.38.6-.65.8-.99.73-2.44.07-3.54-.1-2.46-.38-4.96-.45-7.43-.17-4.69.53-9.25,2.1-12.94,5.11l2.25,1.74c2.26-4.4,6.86-6.55,11.41-7.86,2.33-.67,4.69-.96,7.11-.92,1.19.02,3.08.14,4.02.98,1.37,1.23,3.41-.8,2.03-2.03-1.23-1.1-3.1-1.56-4.7-1.75-2.9-.35-6.07.1-8.86.86-5.36,1.47-10.82,4.13-13.47,9.28-.77,1.5,1.01,2.76,2.25,1.74,4.27-3.48,10.23-4.72,15.62-4.39,2.73.16,5.77,1.64,8.15-.32,1.59-1.31,2.39-3.69,1.01-5.41-1.16-1.44-3.18.6-2.03,2.03Z"/><path class="f" d="m102.12,145.17c-1.02.83-.61,3.51,1.45,4.35.56.23,1.2.21,1.83.12,7.74-1.12,16.18,1.51,20.57,6.41-1-3.41-3.75-6.5-7.54-8.49s-6.88-3.23-12.1-3.45c0,0-3.18.22-4.21,1.06Z"/><path class="f" d="m101.06,144.11c-1.66,1.58-1.01,4.4.49,5.85.99.96,2.31,1.33,3.66,1.2,1.52-.15,3.01-.31,4.54-.27,5.51.15,11.37,2.07,15.16,6.22,1.01,1.1,2.95-.05,2.51-1.46-1.78-5.73-6.8-9.05-12.1-11.2-2.66-1.09-5.48-1.63-8.34-1.8-1.77-.11-4.15.18-5.61,1.23-1.56,1.11-.06,3.72,1.51,2.59,1.13-.81,2.95-.9,4.31-.81,2.42.16,4.78.67,7.03,1.56,4.37,1.72,8.84,4.5,10.3,9.23l2.51-1.46c-3.29-3.59-8.02-5.73-12.76-6.6-2.55-.47-5.16-.63-7.75-.38-1.01.1-2.29.55-3.05-.36-.27-.32-.6-1.13-.3-1.41,1.4-1.33-.72-3.45-2.12-2.12Z"/><path class="e" d="m143.52,166.39c1.4-1.24,2.31-3.19,3.71-4.43,2.01-1.78,4.29-3.83,7.44-3.74,5.74.16,7.65,1.87,8.5,3.12,2.17,3.18.64,10.91-5.74,19.01-3.76,4.78-6.61,3.34-9.99,2.8-1.99-.31-4.2-3.13-3.64-4.57"/><path class="f" d="m144.58,167.45c1.59-1.49,2.59-3.45,4.24-4.9,1.55-1.35,3.3-2.74,5.44-2.83,1.83-.08,3.92.18,5.63.89.45.19,1.01.52,1.31.76.16.13.31.29.45.44.26.28.15.16.22.28,1.55,2.36.48,5.9-.39,8.31-.81,2.23-1.97,4.34-3.28,6.32-1.22,1.85-2.66,4.23-4.77,5.18-1.5.68-3.1.28-4.65-.02-.92-.18-1.67-.29-2.4-.93-.44-.39-1.33-1.32-1.14-1.96.54-1.86-2.36-2.65-2.89-.8-.64,2.23,1.2,4.57,2.98,5.7,1.55.99,3.98,1.26,5.8,1.37,2.24.13,4.24-.75,5.88-2.24,2.3-2.08,4.11-5.04,5.55-7.77,1.97-3.71,3.91-8.63,2.69-12.89-.99-3.47-4.38-4.93-7.69-5.4s-6.14-.15-8.88,1.85c-1.11.81-2.27,1.73-3.19,2.76-1.07,1.21-1.86,2.64-3.05,3.75-1.41,1.32.71,3.44,2.12,2.12h0Z"/></svg>